<?xml version="1.0" standalone="no"?><!DOCTYPE svg PUBLIC "-//W3C//DTD SVG 1.1//EN" "http://www.w3.org/Graphics/SVG/1.1/DTD/svg11.dtd"><svg t="1744439077946" class="icon" viewBox="0 0 1024 1024" version="1.1" xmlns="http://www.w3.org/2000/svg" p-id="13232" width="24" height="24" xmlns:xlink="http://www.w3.org/1999/xlink"><path d="M562.469 103.699c7.819 15.652 1.611 34.645-13.854 42.687l-0.472 0.24L285.34 277.918h589.993c40.825 0 73.998 32.765 74.657 73.433l0.01 1.235v511.747C950 905.571 916.57 939 875.333 939H149.667C108.429 939 75 905.57 75 864.333V352.586c0-38.368 28.938-69.976 66.18-74.19L519.54 89.374c15.81-7.899 35.03-1.485 42.929 14.325zM384.447 469.838c-88.388 0-160.052 71.604-160.052 159.946 0 88.341 71.664 159.946 160.052 159.946 88.389 0 160.053-71.605 160.053-159.946 0-88.342-71.664-159.946-160.053-159.946zM768.605 683.08H640.553l-0.53 0.004c-17.429 0.283-31.47 14.5-31.47 31.996 0 17.673 14.327 32 32 32h128.052l0.53-0.004c17.428-0.283 31.47-14.5 31.47-31.996 0-17.673-14.327-32-32-32z m0-170.595H640.553l-0.53 0.005c-17.429 0.282-31.47 14.5-31.47 31.995 0 17.674 14.327 32 32 32h128.052l0.53-0.004c17.428-0.282 31.47-14.5 31.47-31.996 0-17.673-14.327-32-32-32z" p-id="13233"></path></svg>